<svg width="122" height="25" viewBox="0 0 122 25" fill="none" xmlns="http://www.w3.org/2000/svg">
<g clip-path="url(#clip0_9841_192)">
<path d="M121.784 18.8714V21.8905H119.251C116.549 21.8056 115.105 20.3462 115.105 17.6051V10.7097H113.336V8.06125H115.105V5.09619H118.842V8.03037H121.699V10.6711H118.842V17.2344C118.842 18.1224 119.019 18.8328 120.386 18.8328L121.784 18.8714Z" fill="white"/>
<path d="M98.4416 15.0029V14.8021C98.4011 13.914 98.5364 13.0267 98.8395 12.191C99.1427 11.3552 99.6078 10.5876 100.208 9.93193C100.809 9.2763 101.532 8.74561 102.338 8.37027C103.144 7.99493 104.016 7.78232 104.904 7.74463C105.082 7.74463 105.267 7.74463 105.445 7.74463C108.974 7.74463 112.07 9.79855 112.07 14.694V15.7364H102.264C102.364 17.9911 103.584 19.2651 105.638 19.2651C107.406 19.2651 108.232 18.493 108.472 17.3656H112.001C111.568 20.3075 109.221 21.9445 105.507 21.9445C101.43 21.9136 98.4416 19.3346 98.4416 15.0029ZM108.395 13.3736C108.263 11.3197 107.229 10.3313 105.43 10.3313C103.63 10.3313 102.596 11.4432 102.341 13.3736H108.395Z" fill="white"/>
<path d="M83.184 15.0029V14.8021C83.1436 13.9153 83.2783 13.0291 83.5805 12.1944C83.8827 11.3596 84.3464 10.5926 84.9452 9.9372C85.544 9.28177 86.266 8.75078 87.0701 8.37456C87.8742 7.99835 88.7446 7.78429 89.6315 7.74463C89.8091 7.74463 89.9944 7.74463 90.172 7.74463C93.7007 7.74463 96.8048 9.79855 96.8048 14.694V15.7364H87.0062C87.1065 17.9911 88.3266 19.2651 90.3805 19.2651C92.1487 19.2651 92.9749 18.493 93.2143 17.3656H96.743C96.3029 20.3075 93.9555 21.9445 90.2415 21.9445C86.1722 21.9136 83.184 19.3346 83.184 15.0029ZM93.1371 13.3736C93.0058 11.3197 91.9711 10.3313 90.172 10.3313C88.3729 10.3313 87.3691 11.4741 87.0834 13.3659L93.1371 13.3736Z" fill="white"/>
<path d="M61.7722 8.03027H65.7256L68.1425 17.188L70.7909 8.03027H73.8796L76.2732 17.188L78.8213 8.03027H82.4427L78.1496 21.6356H74.4432L72.1268 13.0956L69.6482 21.6356H65.8955L61.7722 8.03027Z" fill="white"/>
<path d="M49.2092 17.358H52.738C52.9001 18.5858 53.5101 19.2884 55.1316 19.2884C56.5833 19.2884 57.2551 18.7402 57.2551 17.8059C57.2551 16.8716 56.4829 16.4778 54.5062 16.1998C50.8848 15.6516 49.4872 14.6092 49.4872 11.953C49.4872 9.11918 52.0816 7.71387 54.8923 7.71387C57.9114 7.71387 60.1892 8.81032 60.5135 11.9375H57.0311C57.0089 11.6958 56.939 11.4608 56.8254 11.2462C56.7119 11.0317 56.557 10.8417 56.3696 10.6873C56.1822 10.533 55.9661 10.4173 55.7337 10.3469C55.5013 10.2766 55.2574 10.2529 55.0158 10.2774H54.9C53.68 10.2774 52.9696 10.8488 52.9696 11.6827C52.9696 12.5167 53.6259 12.8796 55.6181 13.1653C59.0001 13.6749 60.8919 14.532 60.8919 17.443C60.8919 20.354 58.753 21.9137 55.1702 21.9137C51.5875 21.9137 49.3096 20.2999 49.2092 17.358Z" fill="white"/>
<path d="M34.2141 8.03049H37.9513V10.1848C38.3726 9.39406 39.012 8.74088 39.7935 8.30288C40.5751 7.86487 41.466 7.66045 42.3603 7.7139C45.0088 7.7139 46.9314 9.3277 46.9314 13.0109V21.6667H43.2406V13.5514C43.2406 11.7059 42.5225 10.8257 40.8546 10.8257C40.5021 10.795 40.147 10.8342 39.8097 10.9411C39.4724 11.048 39.1595 11.2205 38.889 11.4487C38.6185 11.6768 38.3958 11.9561 38.2335 12.2706C38.0713 12.5851 37.9728 12.9285 37.9436 13.2811C37.9243 13.4453 37.9243 13.6111 37.9436 13.7753V21.6358H34.2141V8.03049Z" fill="white"/>
<path d="M27.0022 4.60972C26.9887 4.2371 27.086 3.86885 27.2819 3.55157C27.4777 3.2343 27.7633 2.98228 28.1025 2.82742C28.4417 2.67256 28.8192 2.62182 29.1872 2.68162C29.5553 2.74143 29.8973 2.90909 30.17 3.16339C30.4427 3.41768 30.6338 3.74717 30.7191 4.11014C30.8044 4.4731 30.7801 4.85323 30.6493 5.20238C30.5184 5.55153 30.287 5.85401 29.9841 6.07153C29.6813 6.28904 29.3207 6.4118 28.948 6.42428H28.8785C28.6473 6.43891 28.4154 6.40774 28.1961 6.33255C27.9769 6.25736 27.7747 6.13963 27.6011 5.98611C27.4275 5.83258 27.2859 5.6463 27.1845 5.43793C27.083 5.22956 27.0237 5.00321 27.0099 4.77187C27.0035 4.71807 27.0009 4.66388 27.0022 4.60972ZM27.0022 8.03035H30.778V21.6357H27.0177L27.0022 8.03035Z" fill="white"/>
<path d="M12.7715 3.04224H24.709V6.33932H16.9874V11.2579H23.1029V14.4315H16.9797V21.6357H12.7715V3.04224Z" fill="white"/>
<path d="M5.56722 9.12683C5.56722 10.2928 5.56722 11.7135 3.96114 12.2927C5.60582 12.8563 5.56722 14.0532 5.56722 15.3041V19.937C5.56722 20.8172 5.92241 21.35 6.55557 21.4813C6.6947 21.5282 6.84127 21.5491 6.98797 21.543H8.53228V24.6316H5.98418C3.2662 24.6316 1.76823 23.0873 1.76823 20.2227V14.7404C1.74895 14.4589 1.62485 14.1949 1.42043 14.0005C1.216 13.8061 0.946116 13.6954 0.664051 13.6903H0V10.98H0.664051C0.951744 10.9762 1.22693 10.8618 1.43252 10.6605C1.63812 10.4592 1.75833 10.1865 1.76823 9.89899V4.33949C1.76823 1.52114 3.23532 0 5.98418 0H8.55544V3.04228H7.01114C6.86426 3.0427 6.71835 3.06615 6.57873 3.11177C5.94557 3.27392 5.59038 3.79899 5.59038 4.65608L5.56722 9.12683Z" fill="white"/>
</g>
<defs>
<clipPath id="clip0_9841_192">
<rect width="122" height="24.7089" fill="white"/>
</clipPath>
</defs>
</svg>
