<svg width="176" height="24" viewBox="0 0 176 24" fill="none" xmlns="http://www.w3.org/2000/svg">
<path d="M13 19V5H50V19H13Z" fill="#666DFF"/>
<path d="M0 19V5H13V19H0Z" fill="#FFD3AF"/>
<path d="M64.144 6.592C65.5307 6.592 66.6827 6.944 67.6 7.648C68.5173 8.352 69.136 9.30667 69.456 10.512H67.52C67.2533 9.82933 66.8267 9.29067 66.24 8.896C65.664 8.49067 64.9547 8.288 64.112 8.288C63.44 8.288 62.8373 8.45333 62.304 8.784C61.7813 9.11467 61.3653 9.58933 61.056 10.208C60.7573 10.816 60.608 11.5307 60.608 12.352C60.608 13.1627 60.7573 13.8773 61.056 14.496C61.3653 15.104 61.7813 15.5733 62.304 15.904C62.8373 16.2347 63.44 16.4 64.112 16.4C64.9547 16.4 65.664 16.2027 66.24 15.808C66.8267 15.4027 67.2533 14.864 67.52 14.192H69.456C69.136 15.3973 68.5173 16.352 67.6 17.056C66.6827 17.7493 65.5307 18.096 64.144 18.096C63.0773 18.096 62.1333 17.856 61.312 17.376C60.4907 16.8853 59.856 16.208 59.408 15.344C58.96 14.4693 58.736 13.472 58.736 12.352C58.736 11.232 58.96 10.24 59.408 9.376C59.856 8.50133 60.4907 7.81867 61.312 7.328C62.1333 6.83733 63.0773 6.592 64.144 6.592ZM75.3079 9.072C76.1612 9.072 76.9292 9.25333 77.6119 9.616C78.2945 9.97867 78.8279 10.5013 79.2119 11.184C79.5959 11.8667 79.7879 12.6667 79.7879 13.584C79.7879 14.512 79.5959 15.3173 79.2119 16C78.8279 16.6827 78.2945 17.2053 77.6119 17.568C76.9292 17.9307 76.1612 18.112 75.3079 18.112C74.4545 18.112 73.6865 17.9307 73.0039 17.568C72.3319 17.2053 71.7985 16.6827 71.4039 16C71.0199 15.3067 70.8279 14.5013 70.8279 13.584C70.8279 12.6667 71.0199 11.8667 71.4039 11.184C71.7985 10.5013 72.3319 9.97867 73.0039 9.616C73.6865 9.25333 74.4545 9.072 75.3079 9.072ZM75.3079 10.656C74.8385 10.656 74.4065 10.7627 74.0119 10.976C73.6172 11.1893 73.2972 11.52 73.0519 11.968C72.8172 12.4053 72.6999 12.944 72.6999 13.584C72.6999 14.2347 72.8172 14.7787 73.0519 15.216C73.2972 15.6533 73.6172 15.9787 74.0119 16.192C74.4065 16.4053 74.8385 16.512 75.3079 16.512C75.7772 16.512 76.2092 16.4053 76.6039 16.192C76.9985 15.9787 77.3132 15.6533 77.5479 15.216C77.7932 14.7787 77.9159 14.2347 77.9159 13.584C77.9159 12.944 77.7932 12.4053 77.5479 11.968C77.3132 11.52 76.9985 11.1893 76.6039 10.976C76.2092 10.7627 75.7772 10.656 75.3079 10.656ZM86.4695 9.04C87.4935 9.04 88.3148 9.37067 88.9335 10.032C89.5522 10.6933 89.8615 11.6373 89.8615 12.864V18H88.0375V13.056C88.0375 12.2667 87.8348 11.6587 87.4295 11.232C87.0242 10.7947 86.4695 10.576 85.7655 10.576C85.0402 10.576 84.4588 10.8107 84.0215 11.28C83.5842 11.7387 83.3655 12.416 83.3655 13.312V18H81.5415V9.184H83.3655V11.12C83.6002 10.4587 83.9948 9.94667 84.5495 9.584C85.1042 9.22133 85.7442 9.04 86.4695 9.04ZM96.4266 16.416V18H95.3066C94.368 18 93.6533 17.776 93.1626 17.328C92.6826 16.8693 92.4426 16.112 92.4426 15.056V10.736H91.1786V9.184H92.4426V6.992H94.2826V9.184H96.4106V10.736H94.2826V15.088C94.2826 15.5893 94.3733 15.936 94.5546 16.128C94.7466 16.32 95.0773 16.416 95.5466 16.416H96.4266ZM101.671 9.072C102.471 9.072 103.154 9.26933 103.719 9.664C104.285 10.0587 104.685 10.5813 104.919 11.232V9.184H106.743V18H104.919V15.952C104.685 16.6027 104.285 17.1253 103.719 17.52C103.154 17.9147 102.471 18.112 101.671 18.112C100.903 18.112 100.215 17.9307 99.6073 17.568C99.0099 17.2053 98.5406 16.6827 98.1993 16C97.8579 15.3173 97.6873 14.512 97.6873 13.584C97.6873 12.6667 97.8579 11.8667 98.1993 11.184C98.5406 10.5013 99.0099 9.97867 99.6073 9.616C100.215 9.25333 100.903 9.072 101.671 9.072ZM102.231 10.672C101.421 10.672 100.77 10.9333 100.279 11.456C99.7993 11.968 99.5593 12.6773 99.5593 13.584C99.5593 14.4907 99.7993 15.2053 100.279 15.728C100.77 16.24 101.421 16.496 102.231 16.496C102.743 16.496 103.202 16.3787 103.607 16.144C104.013 15.8987 104.333 15.5573 104.567 15.12C104.802 14.6827 104.919 14.1707 104.919 13.584C104.919 13.008 104.802 12.5013 104.567 12.064C104.333 11.616 104.013 11.2747 103.607 11.04C103.202 10.7947 102.743 10.672 102.231 10.672ZM112.852 9.072C113.993 9.072 114.937 9.376 115.684 9.984C116.431 10.5813 116.895 11.3973 117.076 12.432H115.14C115.033 11.8773 114.772 11.4453 114.356 11.136C113.951 10.816 113.439 10.656 112.82 10.656C112.116 10.656 111.529 10.9067 111.06 11.408C110.591 11.8987 110.356 12.624 110.356 13.584C110.356 14.544 110.591 15.2747 111.06 15.776C111.529 16.2773 112.116 16.528 112.82 16.528C113.439 16.528 113.951 16.368 114.356 16.048C114.772 15.728 115.033 15.2907 115.14 14.736H117.076C116.895 15.7707 116.431 16.592 115.684 17.2C114.937 17.808 113.993 18.112 112.852 18.112C111.999 18.112 111.241 17.9307 110.58 17.568C109.929 17.2053 109.417 16.6827 109.044 16C108.671 15.3173 108.484 14.512 108.484 13.584C108.484 12.6667 108.671 11.8667 109.044 11.184C109.417 10.5013 109.929 9.97867 110.58 9.616C111.241 9.25333 111.999 9.072 112.852 9.072ZM123.27 16.416V18H122.15C121.212 18 120.497 17.776 120.006 17.328C119.526 16.8693 119.286 16.112 119.286 15.056V10.736H118.022V9.184H119.286V6.992H121.126V9.184H123.254V10.736H121.126V15.088C121.126 15.5893 121.217 15.936 121.398 16.128C121.59 16.32 121.921 16.416 122.39 16.416H123.27ZM130.473 6.704V13.408C130.473 14.4107 130.692 15.1573 131.129 15.648C131.577 16.1387 132.201 16.384 133.001 16.384C133.79 16.384 134.404 16.1387 134.841 15.648C135.289 15.1573 135.513 14.4107 135.513 13.408V6.704H137.337V13.408C137.337 14.9547 136.937 16.128 136.137 16.928C135.337 17.7173 134.281 18.112 132.969 18.112C131.668 18.112 130.622 17.7173 129.833 16.928C129.044 16.128 128.649 14.9547 128.649 13.408V6.704H130.473ZM142.359 9.072C143.394 9.072 144.221 9.33867 144.839 9.872C145.469 10.3947 145.853 11.0987 145.991 11.984H144.263C144.189 11.504 143.981 11.12 143.639 10.832C143.309 10.5333 142.866 10.384 142.311 10.384C141.853 10.384 141.495 10.496 141.239 10.72C140.994 10.9333 140.871 11.2267 140.871 11.6C140.871 11.8773 140.962 12.1013 141.143 12.272C141.325 12.4427 141.549 12.576 141.815 12.672C142.093 12.768 142.482 12.8747 142.983 12.992C143.645 13.1413 144.178 13.296 144.583 13.456C144.999 13.616 145.351 13.872 145.639 14.224C145.938 14.5653 146.087 15.0347 146.087 15.632C146.087 16.368 145.805 16.9653 145.239 17.424C144.685 17.8827 143.933 18.112 142.983 18.112C141.885 18.112 140.994 17.856 140.311 17.344C139.639 16.832 139.234 16.1173 139.095 15.2H140.871C140.925 15.68 141.138 16.0693 141.511 16.368C141.885 16.6667 142.375 16.816 142.983 16.816C143.421 16.816 143.762 16.704 144.007 16.48C144.263 16.2453 144.391 15.952 144.391 15.6C144.391 15.2907 144.295 15.0453 144.103 14.864C143.911 14.6827 143.671 14.544 143.383 14.448C143.095 14.3413 142.701 14.2347 142.199 14.128C141.559 13.9787 141.037 13.8293 140.631 13.68C140.237 13.5307 139.895 13.2907 139.607 12.96C139.33 12.6187 139.191 12.16 139.191 11.584C139.191 10.8373 139.469 10.2347 140.023 9.776C140.589 9.30667 141.367 9.072 142.359 9.072Z" fill="#232536"/>
<path d="M175.354 12.3536C175.549 12.1583 175.549 11.8417 175.354 11.6464L172.172 8.46447C171.976 8.2692 171.66 8.2692 171.464 8.46447C171.269 8.65973 171.269 8.97631 171.464 9.17157L174.293 12L171.464 14.8284C171.269 15.0237 171.269 15.3403 171.464 15.5355C171.66 15.7308 171.976 15.7308 172.172 15.5355L175.354 12.3536ZM155 12.5L175 12.5V11.5L155 11.5V12.5Z" fill="#232536"/>
</svg>
