<svg width="187" height="50" viewBox="0 0 187 50" fill="none" xmlns="http://www.w3.org/2000/svg">
<path d="M17.334 29.292L14.166 42H11.646L8.964 32.172L6.282 42H3.762L0.594 29.292H2.844L5.04 39.624L7.83 29.292H10.098L12.888 39.624L15.084 29.292H17.334ZM28.3877 36.564C28.3877 36.9 28.3637 37.194 28.3157 37.446H20.6837C20.7197 38.466 21.0017 39.222 21.5297 39.714C22.0577 40.206 22.7117 40.452 23.4917 40.452C24.1757 40.452 24.7517 40.278 25.2197 39.93C25.6997 39.582 25.9937 39.12 26.1017 38.544H28.2977C28.1657 39.24 27.8897 39.858 27.4697 40.398C27.0497 40.938 26.5037 41.364 25.8317 41.676C25.1597 41.976 24.4097 42.126 23.5817 42.126C22.6217 42.126 21.7697 41.922 21.0257 41.514C20.2937 41.106 19.7177 40.518 19.2977 39.75C18.8777 38.982 18.6677 38.076 18.6677 37.032C18.6677 36 18.8777 35.1 19.2977 34.332C19.7177 33.564 20.2937 32.976 21.0257 32.568C21.7697 32.16 22.6217 31.956 23.5817 31.956C24.5537 31.956 25.3997 32.16 26.1197 32.568C26.8517 32.964 27.4097 33.516 27.7937 34.224C28.1897 34.92 28.3877 35.7 28.3877 36.564ZM26.3177 36.51C26.3417 35.862 26.2277 35.322 25.9757 34.89C25.7357 34.446 25.3997 34.122 24.9677 33.918C24.5477 33.702 24.0857 33.594 23.5817 33.594C22.7777 33.594 22.1057 33.84 21.5657 34.332C21.0257 34.824 20.7317 35.55 20.6837 36.51H26.3177ZM31.737 27.636L31.521 31.344H30.117L29.883 27.636H31.737ZM37.8295 39.876L40.6375 32.082H42.8335L39.0535 42H36.5695L32.7895 32.082H34.9855L37.8295 39.876ZM53.5596 36.564C53.5596 36.9 53.5356 37.194 53.4876 37.446H45.8556C45.8916 38.466 46.1736 39.222 46.7016 39.714C47.2296 40.206 47.8836 40.452 48.6636 40.452C49.3476 40.452 49.9236 40.278 50.3916 39.93C50.8716 39.582 51.1656 39.12 51.2736 38.544H53.4696C53.3376 39.24 53.0616 39.858 52.6416 40.398C52.2216 40.938 51.6756 41.364 51.0036 41.676C50.3316 41.976 49.5816 42.126 48.7536 42.126C47.7936 42.126 46.9416 41.922 46.1976 41.514C45.4656 41.106 44.8896 40.518 44.4696 39.75C44.0496 38.982 43.8396 38.076 43.8396 37.032C43.8396 36 44.0496 35.1 44.4696 34.332C44.8896 33.564 45.4656 32.976 46.1976 32.568C46.9416 32.16 47.7936 31.956 48.7536 31.956C49.7256 31.956 50.5716 32.16 51.2916 32.568C52.0236 32.964 52.5816 33.516 52.9656 34.224C53.3616 34.92 53.5596 35.7 53.5596 36.564ZM51.4896 36.51C51.5136 35.862 51.3996 35.322 51.1476 34.89C50.9076 34.446 50.5716 34.122 50.1396 33.918C49.7196 33.702 49.2576 33.594 48.7536 33.594C47.9496 33.594 47.2776 33.84 46.7376 34.332C46.1976 34.824 45.9036 35.55 45.8556 36.51H51.4896ZM75.8516 29.292L72.6836 42H70.1636L67.4816 32.172L64.7996 42H62.2796L59.1116 29.292H61.3616L63.5576 39.624L66.3476 29.292H68.6156L71.4056 39.624L73.6016 29.292H75.8516ZM82.2253 31.956C83.1853 31.956 84.0493 32.16 84.8173 32.568C85.5853 32.976 86.1853 33.564 86.6173 34.332C87.0493 35.1 87.2653 36 87.2653 37.032C87.2653 38.076 87.0493 38.982 86.6173 39.75C86.1853 40.518 85.5853 41.106 84.8173 41.514C84.0493 41.922 83.1853 42.126 82.2253 42.126C81.2653 42.126 80.4013 41.922 79.6333 41.514C78.8773 41.106 78.2773 40.518 77.8333 39.75C77.4013 38.97 77.1853 38.064 77.1853 37.032C77.1853 36 77.4013 35.1 77.8333 34.332C78.2773 33.564 78.8773 32.976 79.6333 32.568C80.4013 32.16 81.2653 31.956 82.2253 31.956ZM82.2253 33.738C81.6973 33.738 81.2113 33.858 80.7673 34.098C80.3233 34.338 79.9633 34.71 79.6873 35.214C79.4233 35.706 79.2913 36.312 79.2913 37.032C79.2913 37.764 79.4233 38.376 79.6873 38.868C79.9633 39.36 80.3233 39.726 80.7673 39.966C81.2113 40.206 81.6973 40.326 82.2253 40.326C82.7533 40.326 83.2393 40.206 83.6833 39.966C84.1273 39.726 84.4813 39.36 84.7453 38.868C85.0213 38.376 85.1593 37.764 85.1593 37.032C85.1593 36.312 85.0213 35.706 84.7453 35.214C84.4813 34.71 84.1273 34.338 83.6833 34.098C83.2393 33.858 82.7533 33.738 82.2253 33.738ZM91.2901 34.026C91.6261 33.378 92.1061 32.868 92.7301 32.496C93.3541 32.112 94.0741 31.92 94.8901 31.92V34.152H94.2781C93.3781 34.152 92.6521 34.374 92.1001 34.818C91.5601 35.25 91.2901 35.97 91.2901 36.978V42H89.2381V32.082H91.2901V34.026ZM102.044 42L98.4795 37.59V42H96.4275V28.68H98.4795V36.312L102.008 32.082H104.474L100.154 37.014L104.582 42H102.044ZM115.136 36.564C115.136 36.9 115.112 37.194 115.064 37.446H107.432C107.468 38.466 107.75 39.222 108.278 39.714C108.806 40.206 109.46 40.452 110.24 40.452C110.924 40.452 111.5 40.278 111.968 39.93C112.448 39.582 112.742 39.12 112.85 38.544H115.046C114.914 39.24 114.638 39.858 114.218 40.398C113.798 40.938 113.252 41.364 112.58 41.676C111.908 41.976 111.158 42.126 110.33 42.126C109.37 42.126 108.518 41.922 107.774 41.514C107.042 41.106 106.466 40.518 106.046 39.75C105.626 38.982 105.416 38.076 105.416 37.032C105.416 36 105.626 35.1 106.046 34.332C106.466 33.564 107.042 32.976 107.774 32.568C108.518 32.16 109.37 31.956 110.33 31.956C111.302 31.956 112.148 32.16 112.868 32.568C113.6 32.964 114.158 33.516 114.542 34.224C114.938 34.92 115.136 35.7 115.136 36.564ZM113.066 36.51C113.09 35.862 112.976 35.322 112.724 34.89C112.484 34.446 112.148 34.122 111.716 33.918C111.296 33.702 110.834 33.594 110.33 33.594C109.526 33.594 108.854 33.84 108.314 34.332C107.774 34.824 107.48 35.55 107.432 36.51H113.066ZM121.095 31.956C121.995 31.956 122.763 32.178 123.399 32.622C124.035 33.066 124.479 33.654 124.731 34.386V28.68H126.801V42H124.731V39.696C124.479 40.428 124.035 41.016 123.399 41.46C122.763 41.904 121.995 42.126 121.095 42.126C120.231 42.126 119.457 41.922 118.773 41.514C118.101 41.106 117.573 40.518 117.189 39.75C116.805 38.982 116.613 38.076 116.613 37.032C116.613 36 116.805 35.1 117.189 34.332C117.573 33.564 118.101 32.976 118.773 32.568C119.457 32.16 120.231 31.956 121.095 31.956ZM121.725 33.756C120.813 33.756 120.081 34.05 119.529 34.638C118.989 35.214 118.719 36.012 118.719 37.032C118.719 38.052 118.989 38.856 119.529 39.444C120.081 40.02 120.813 40.308 121.725 40.308C122.301 40.308 122.817 40.176 123.273 39.912C123.729 39.636 124.089 39.252 124.353 38.76C124.617 38.268 124.749 37.692 124.749 37.032C124.749 36.384 124.617 35.814 124.353 35.322C124.089 34.818 123.729 34.434 123.273 34.17C122.817 33.894 122.301 33.756 121.725 33.756ZM147.378 32.082L144.624 42H142.356L139.908 34.332L137.424 42H135.174L132.42 32.082H134.49L136.38 40.11L138.864 32.082H141.024L143.544 40.11L145.434 32.082H147.378ZM148.487 29.202C148.487 28.854 148.607 28.566 148.847 28.338C149.087 28.11 149.405 27.996 149.801 27.996C150.197 27.996 150.515 28.11 150.755 28.338C151.007 28.566 151.133 28.854 151.133 29.202C151.133 29.55 151.007 29.832 150.755 30.048C150.515 30.264 150.197 30.372 149.801 30.372C149.405 30.372 149.087 30.264 148.847 30.048C148.607 29.832 148.487 29.55 148.487 29.202ZM150.827 32.082V42H148.775V32.082H150.827ZM158.296 40.218V42H157.036C155.98 42 155.176 41.748 154.624 41.244C154.084 40.728 153.814 39.876 153.814 38.688V33.828H152.392V32.082H153.814V29.616H155.884V32.082H158.278V33.828H155.884V38.724C155.884 39.288 155.986 39.678 156.19 39.894C156.406 40.11 156.778 40.218 157.306 40.218H158.296ZM165.763 31.92C166.915 31.92 167.839 32.292 168.535 33.036C169.231 33.78 169.579 34.842 169.579 36.222V42H167.527V36.438C167.527 35.55 167.299 34.866 166.843 34.386C166.387 33.894 165.763 33.648 164.971 33.648C164.155 33.648 163.501 33.912 163.009 34.44C162.517 34.956 162.271 35.718 162.271 36.726V42H160.219V28.68H162.271V34.26C162.535 33.516 162.979 32.94 163.603 32.532C164.227 32.124 164.947 31.92 165.763 31.92Z" fill="white"/>
<path opacity="0.6" d="M5.488 15.098C4.58267 15.098 3.74733 14.888 2.982 14.468C2.226 14.0387 1.624 13.446 1.176 12.69C0.737333 11.9247 0.518 11.066 0.518 10.114C0.518 9.162 0.737333 8.308 1.176 7.552C1.624 6.796 2.226 6.208 2.982 5.788C3.74733 5.35867 4.58267 5.144 5.488 5.144C6.40267 5.144 7.238 5.35867 7.994 5.788C8.75933 6.208 9.36133 6.796 9.8 7.552C10.2387 8.308 10.458 9.162 10.458 10.114C10.458 11.066 10.2387 11.9247 9.8 12.69C9.36133 13.446 8.75933 14.0387 7.994 14.468C7.238 14.888 6.40267 15.098 5.488 15.098ZM5.488 13.712C6.132 13.712 6.706 13.5673 7.21 13.278C7.714 12.9793 8.106 12.5593 8.386 12.018C8.67533 11.4673 8.82 10.8327 8.82 10.114C8.82 9.39533 8.67533 8.76533 8.386 8.224C8.106 7.68267 7.714 7.26733 7.21 6.978C6.706 6.68867 6.132 6.544 5.488 6.544C4.844 6.544 4.27 6.68867 3.766 6.978C3.262 7.26733 2.86533 7.68267 2.576 8.224C2.296 8.76533 2.156 9.39533 2.156 10.114C2.156 10.8327 2.296 11.4673 2.576 12.018C2.86533 12.5593 3.262 12.9793 3.766 13.278C4.27 13.5673 4.844 13.712 5.488 13.712ZM19.0145 7.286V15H17.4185V14.09C17.1665 14.4073 16.8352 14.6593 16.4245 14.846C16.0232 15.0233 15.5938 15.112 15.1365 15.112C14.5298 15.112 13.9838 14.986 13.4985 14.734C13.0225 14.482 12.6445 14.1087 12.3645 13.614C12.0938 13.1193 11.9585 12.522 11.9585 11.822V7.286H13.5405V11.584C13.5405 12.2747 13.7132 12.8067 14.0585 13.18C14.4038 13.544 14.8752 13.726 15.4725 13.726C16.0698 13.726 16.5412 13.544 16.8865 13.18C17.2412 12.8067 17.4185 12.2747 17.4185 11.584V7.286H19.0145ZM22.7163 8.406C22.9496 8.014 23.2576 7.71067 23.6403 7.496C24.0323 7.272 24.4943 7.16 25.0263 7.16V8.812H24.6203C23.995 8.812 23.519 8.97067 23.1923 9.288C22.875 9.60533 22.7163 10.156 22.7163 10.94V15H21.1203V7.286H22.7163V8.406ZM29.5981 10.114C29.5981 9.162 29.8174 8.308 30.2561 7.552C30.7041 6.796 31.3061 6.208 32.0621 5.788C32.8274 5.35867 33.6627 5.144 34.5681 5.144C35.6041 5.144 36.5234 5.40067 37.3261 5.914C38.1381 6.418 38.7261 7.13667 39.0901 8.07H37.1721C36.9201 7.55667 36.5701 7.174 36.1221 6.922C35.6741 6.67 35.1561 6.544 34.5681 6.544C33.9241 6.544 33.3501 6.68867 32.8461 6.978C32.3421 7.26733 31.9454 7.68267 31.6561 8.224C31.3761 8.76533 31.2361 9.39533 31.2361 10.114C31.2361 10.8327 31.3761 11.4627 31.6561 12.004C31.9454 12.5453 32.3421 12.9653 32.8461 13.264C33.3501 13.5533 33.9241 13.698 34.5681 13.698C35.1561 13.698 35.6741 13.572 36.1221 13.32C36.5701 13.068 36.9201 12.6853 37.1721 12.172H39.0901C38.7261 13.1053 38.1381 13.824 37.3261 14.328C36.5234 14.832 35.6041 15.084 34.5681 15.084C33.6534 15.084 32.8181 14.874 32.0621 14.454C31.3061 14.0247 30.7041 13.432 30.2561 12.676C29.8174 11.92 29.5981 11.066 29.5981 10.114ZM42.5542 4.64V15H40.9582V4.64H42.5542ZM45.4616 6.264C45.1723 6.264 44.9296 6.166 44.7336 5.97C44.5376 5.774 44.4396 5.53133 44.4396 5.242C44.4396 4.95267 44.5376 4.71 44.7336 4.514C44.9296 4.318 45.1723 4.22 45.4616 4.22C45.7416 4.22 45.9796 4.318 46.1756 4.514C46.3716 4.71 46.4696 4.95267 46.4696 5.242C46.4696 5.53133 46.3716 5.774 46.1756 5.97C45.9796 6.166 45.7416 6.264 45.4616 6.264ZM46.2456 7.286V15H44.6496V7.286H46.2456ZM55.411 10.954C55.411 11.2433 55.3923 11.5047 55.355 11.738H49.461C49.5077 12.354 49.7363 12.8487 50.147 13.222C50.5577 13.5953 51.0617 13.782 51.659 13.782C52.5177 13.782 53.1243 13.4227 53.479 12.704H55.201C54.9677 13.4133 54.543 13.9967 53.927 14.454C53.3203 14.902 52.5643 15.126 51.659 15.126C50.9217 15.126 50.259 14.9627 49.671 14.636C49.0923 14.3 48.635 13.8333 48.299 13.236C47.9723 12.6293 47.809 11.9293 47.809 11.136C47.809 10.3427 47.9677 9.64733 48.285 9.05C48.6117 8.44333 49.0643 7.97667 49.643 7.65C50.231 7.32333 50.903 7.16 51.659 7.16C52.387 7.16 53.0357 7.31867 53.605 7.636C54.1743 7.95333 54.6177 8.40133 54.935 8.98C55.2523 9.54933 55.411 10.2073 55.411 10.954ZM53.745 10.45C53.7357 9.862 53.5257 9.39067 53.115 9.036C52.7043 8.68133 52.1957 8.504 51.589 8.504C51.0383 8.504 50.567 8.68133 50.175 9.036C49.783 9.38133 49.5497 9.85267 49.475 10.45H53.745ZM60.8736 7.16C61.4803 7.16 62.0216 7.286 62.4976 7.538C62.983 7.79 63.361 8.16333 63.6316 8.658C63.9023 9.15267 64.0376 9.75 64.0376 10.45V15H62.4556V10.688C62.4556 9.99733 62.283 9.47 61.9376 9.106C61.5923 8.73267 61.121 8.546 60.5236 8.546C59.9263 8.546 59.4503 8.73267 59.0956 9.106C58.7503 9.47 58.5776 9.99733 58.5776 10.688V15H56.9816V7.286H58.5776V8.168C58.839 7.85067 59.1703 7.60333 59.5716 7.426C59.9823 7.24867 60.4163 7.16 60.8736 7.16ZM67.9354 8.588V12.858C67.9354 13.1473 68.0008 13.3573 68.1314 13.488C68.2714 13.6093 68.5048 13.67 68.8314 13.67H69.8114V15H68.5514C67.8328 15 67.2821 14.832 66.8994 14.496C66.5168 14.16 66.3254 13.614 66.3254 12.858V8.588H65.4154V7.286H66.3254V5.368H67.9354V7.286H69.8114V8.588H67.9354ZM74.0824 15.126C73.4758 15.126 72.9298 15.0187 72.4444 14.804C71.9684 14.58 71.5904 14.2813 71.3104 13.908C71.0304 13.5253 70.8811 13.1007 70.8624 12.634H72.5144C72.5424 12.9607 72.6964 13.236 72.9764 13.46C73.2658 13.6747 73.6251 13.782 74.0544 13.782C74.5024 13.782 74.8478 13.698 75.0904 13.53C75.3424 13.3527 75.4684 13.1287 75.4684 12.858C75.4684 12.5687 75.3284 12.354 75.0484 12.214C74.7778 12.074 74.3438 11.92 73.7464 11.752C73.1678 11.5933 72.6964 11.4393 72.3324 11.29C71.9684 11.1407 71.6511 10.912 71.3804 10.604C71.1191 10.296 70.9884 9.89 70.9884 9.386C70.9884 8.97533 71.1098 8.602 71.3524 8.266C71.5951 7.92067 71.9404 7.65 72.3884 7.454C72.8458 7.258 73.3684 7.16 73.9564 7.16C74.8338 7.16 75.5384 7.384 76.0704 7.832C76.6118 8.27067 76.9011 8.87267 76.9384 9.638H75.3424C75.3144 9.29267 75.1744 9.01733 74.9224 8.812C74.6704 8.60667 74.3298 8.504 73.9004 8.504C73.4804 8.504 73.1584 8.58333 72.9344 8.742C72.7104 8.90067 72.5984 9.11067 72.5984 9.372C72.5984 9.57733 72.6731 9.75 72.8224 9.89C72.9718 10.03 73.1538 10.142 73.3684 10.226C73.5831 10.3007 73.9004 10.3987 74.3204 10.52C74.8804 10.6693 75.3378 10.8233 75.6924 10.982C76.0564 11.1313 76.3691 11.3553 76.6304 11.654C76.8918 11.9527 77.0271 12.3493 77.0364 12.844C77.0364 13.2827 76.9151 13.6747 76.6724 14.02C76.4298 14.3653 76.0844 14.636 75.6364 14.832C75.1978 15.028 74.6798 15.126 74.0824 15.126Z" fill="white"/>
</svg>
