<svg width="120" height="25" viewBox="0 0 120 25" fill="none" xmlns="http://www.w3.org/2000/svg">
<g clip-path="url(#clip0_9571_144)">
<path d="M119.787 18.5621V21.5317H117.296C114.638 21.4481 113.218 20.0127 113.218 17.3165V10.5342H111.478V7.92915H113.218V5.0127H116.894V7.89877H119.704V10.4962H116.894V16.9519C116.894 17.8254 117.068 18.5241 118.413 18.5241L119.787 18.5621Z" fill="#232536"/>
<path d="M96.8279 14.7569V14.5594C96.7881 13.6859 96.9211 12.8131 97.2193 11.9911C97.5175 11.1691 97.975 10.414 98.5655 9.76912C99.1561 9.12424 99.8681 8.60225 100.661 8.23306C101.453 7.86387 102.311 7.65475 103.185 7.61768C103.36 7.61768 103.542 7.61768 103.716 7.61768C107.187 7.61768 110.233 9.63793 110.233 14.4531V15.4784H100.587C100.686 17.6962 101.886 18.9493 103.906 18.9493C105.646 18.9493 106.458 18.1898 106.694 17.081H110.165C109.739 19.9746 107.43 21.5848 103.777 21.5848C99.7671 21.5544 96.8279 19.0177 96.8279 14.7569ZM106.618 13.1544C106.489 11.1341 105.471 10.162 103.701 10.162C101.932 10.162 100.914 11.2557 100.663 13.1544H106.618Z" fill="#232536"/>
<path d="M81.8203 14.7569V14.5594C81.7805 13.6871 81.913 12.8156 82.2102 11.9945C82.5074 11.1734 82.9636 10.419 83.5525 9.77431C84.1415 9.12962 84.8517 8.60733 85.6427 8.23728C86.4336 7.86723 87.2897 7.65669 88.162 7.61768C88.3367 7.61768 88.519 7.61768 88.6937 7.61768C92.1646 7.61768 95.2177 9.63793 95.2177 14.4531V15.4784H85.5797C85.6785 17.6962 86.8785 18.9493 88.8987 18.9493C90.638 18.9493 91.4506 18.1898 91.6861 17.081H95.157C94.7241 19.9746 92.4152 21.5848 88.762 21.5848C84.7595 21.5544 81.8203 19.0177 81.8203 14.7569ZM91.6101 13.1544C91.481 11.1341 90.4633 10.162 88.6937 10.162C86.9241 10.162 85.9367 11.286 85.6557 13.1468L91.6101 13.1544Z" fill="#232536"/>
<path d="M60.7595 7.89868H64.6481L67.0253 16.9063L69.6304 7.89868H72.6683L75.0228 16.9063L77.5291 7.89868H81.0911L76.8683 21.281H73.2228L70.9443 12.881L68.5063 21.281H64.8152L60.7595 7.89868Z" fill="#232536"/>
<path d="M48.4025 17.0735H51.8734C52.0329 18.2811 52.6329 18.9722 54.2278 18.9722C55.6557 18.9722 56.3165 18.433 56.3165 17.514C56.3165 16.595 55.557 16.2077 53.6127 15.9342C50.0506 15.395 48.6759 14.3697 48.6759 11.757C48.6759 8.96968 51.2278 7.5874 53.9924 7.5874C56.962 7.5874 59.2025 8.66588 59.5215 11.7418H56.0962C56.0743 11.504 56.0056 11.2729 55.8939 11.0619C55.7822 10.8508 55.6298 10.6639 55.4455 10.5121C55.2612 10.3603 55.0486 10.2465 54.82 10.1773C54.5915 10.1081 54.3515 10.0848 54.1139 10.1089H54C52.8 10.1089 52.1013 10.6709 52.1013 11.4912C52.1013 12.3115 52.7468 12.6684 54.7063 12.9494C58.0329 13.4507 59.8937 14.2937 59.8937 17.157C59.8937 20.0203 57.7899 21.5545 54.2658 21.5545C50.7418 21.5545 48.5013 19.9671 48.4025 17.0735Z" fill="#232536"/>
<path d="M33.6532 7.8987H37.3291V10.0177C37.7434 9.23991 38.3724 8.59744 39.1411 8.16662C39.9099 7.73579 40.7861 7.53472 41.6658 7.5873C44.2709 7.5873 46.162 9.17465 46.162 12.7974V21.3114H42.5316V13.3291C42.5316 11.5139 41.8253 10.6481 40.1848 10.6481C39.8381 10.6179 39.4888 10.6565 39.157 10.7616C38.8252 10.8668 38.5175 11.0364 38.2514 11.2608C37.9854 11.4852 37.7663 11.76 37.6067 12.0693C37.4471 12.3786 37.3502 12.7164 37.3215 13.0633C37.3025 13.2247 37.3025 13.3879 37.3215 13.5493V21.281H33.6532V7.8987Z" fill="#232536"/>
<path d="M26.5595 4.53413C26.5462 4.16762 26.6419 3.80541 26.8346 3.49333C27.0272 3.18126 27.3081 2.93337 27.6418 2.78105C27.9754 2.62872 28.3467 2.57882 28.7087 2.63764C29.0707 2.69647 29.4071 2.86139 29.6753 3.11151C29.9435 3.36164 30.1315 3.68572 30.2154 4.04274C30.2994 4.39976 30.2755 4.77365 30.1468 5.11708C30.0181 5.46051 29.7904 5.75803 29.4925 5.97198C29.1946 6.18592 28.84 6.30667 28.4734 6.31894H28.4051C28.1776 6.33334 27.9495 6.30268 27.7338 6.22872C27.5182 6.15476 27.3193 6.03896 27.1486 5.88795C26.9778 5.73695 26.8385 5.55372 26.7388 5.34876C26.639 5.14381 26.5806 4.92117 26.5671 4.69362C26.5608 4.64071 26.5582 4.58741 26.5595 4.53413ZM26.5595 7.89869H30.2734V21.281H26.5747L26.5595 7.89869Z" fill="#232536"/>
<path d="M12.562 2.99243H24.3038V6.23547H16.7089V11.0734H22.7241V14.195H16.7013V21.281H12.562V2.99243Z" fill="#232536"/>
<path d="M5.47595 8.97721C5.47595 10.1241 5.47595 11.5215 3.8962 12.0911C5.51393 12.6456 5.47595 13.8228 5.47595 15.0532V19.6101C5.47595 20.4759 5.82532 21 6.4481 21.1291C6.58495 21.1753 6.72912 21.1959 6.87342 21.1899H8.39241V24.2278H5.88608C3.21266 24.2278 1.73924 22.7089 1.73924 19.8911V14.4987C1.72028 14.2219 1.59821 13.9622 1.39714 13.771C1.19607 13.5798 0.930606 13.4709 0.653165 13.4658H0V10.8H0.653165C0.936141 10.7963 1.20682 10.6837 1.40904 10.4858C1.61126 10.2878 1.72951 10.0195 1.73924 9.73671V4.26835C1.73924 1.4962 3.18228 0 5.88608 0H8.41519V2.9924H6.8962C6.75173 2.99282 6.60822 3.01589 6.47089 3.06076C5.8481 3.22025 5.49873 3.73671 5.49873 4.57975L5.47595 8.97721Z" fill="#232536"/>
</g>
<defs>
<clipPath id="clip0_9571_144">
<rect width="120" height="24.3038" fill="white"/>
</clipPath>
</defs>
</svg>
